# Exported from MXVK MXModel
mtllib 3dstar.mtl

v 0 0 0.75
v 0.309017 0.951057 0
v 1 0 0
v 0 0 -0.75
v 1 0 0
v 0.309017 0.951057 0
v 0 0 0.75
v -0.809017 0.587785 0
v 0.309017 0.951057 0
v 0 0 -0.75
v 0.309017 0.951057 0
v -0.809017 0.587785 0
v 0 0 0.75
v -0.809017 -0.587785 0
v -0.809017 0.587785 0
v 0 0 -0.75
v -0.809017 0.587785 0
v -0.809017 -0.587785 0
v 0 0 0.75
v 0.309017 -0.951057 0
v -0.809017 -0.587785 0
v 0 0 -0.75
v -0.809017 -0.587785 0
v 0.309017 -0.951057 0
v 0 0 0.75
v 1 0 0
v 0.309017 -0.951057 0
v 0 0 -0.75
v 0.309017 -0.951057 0
v 1 0 0

vt 0.5 1
vt 0 0
vt 1 0
vt 0.5 1
vt 0 0
vt 1 0
vt 0.5 1
vt 0 0
vt 1 0
vt 0.5 1
vt 0 0
vt 1 0
vt 0.5 1
vt 0 0
vt 1 0
vt 0.5 1
vt 0 0
vt 1 0
vt 0.5 1
vt 0 0
vt 1 0
vt 0.5 1
vt 0 0
vt 1 0
vt 0.5 1
vt 0 0
vt 1 0
vt 0.5 1
vt 0 0
vt 1 0

vn -0.550012 -0.399607 -0.733349
vn -0.550012 -0.399607 -0.733349
vn -0.550012 -0.399607 -0.733349
vn -0.550012 -0.399607 0.733349
vn -0.550012 -0.399607 0.733349
vn -0.550012 -0.399607 0.733349
vn 0.210086 -0.646578 -0.733349
vn 0.210086 -0.646578 -0.733349
vn 0.210086 -0.646578 -0.733349
vn 0.210086 -0.646578 0.733349
vn 0.210086 -0.646578 0.733349
vn 0.210086 -0.646578 0.733349
vn 0.679852 -1.71216e-16 -0.733349
vn 0.679852 -1.71216e-16 -0.733349
vn 0.679852 -1.71216e-16 -0.733349
vn 0.679852 -1.71216e-16 0.733349
vn 0.679852 -1.71216e-16 0.733349
vn 0.679852 -1.71216e-16 0.733349
vn 0.210086 0.646578 -0.733349
vn 0.210086 0.646578 -0.733349
vn 0.210086 0.646578 -0.733349
vn 0.210086 0.646578 0.733349
vn 0.210086 0.646578 0.733349
vn 0.210086 0.646578 0.733349
vn -0.550012 0.399607 -0.733349
vn -0.550012 0.399607 -0.733349
vn -0.550012 0.399607 -0.733349
vn -0.550012 0.399607 0.733349
vn -0.550012 0.399607 0.733349
vn -0.550012 0.399607 0.733349

usemtl material_0
f 1/1/1 2/2/2 3/3/3
f 4/4/4 5/5/5 6/6/6
f 7/7/7 8/8/8 9/9/9
f 10/10/10 11/11/11 12/12/12
f 13/13/13 14/14/14 15/15/15
f 16/16/16 17/17/17 18/18/18
f 19/19/19 20/20/20 21/21/21
f 22/22/22 23/23/23 24/24/24
f 25/25/25 26/26/26 27/27/27
f 28/28/28 29/29/29 30/30/30

