# Exported from MXVK MXModel
mtllib bird.mtl

v -0.1 -0.05 7.5
v 0.1 -0.05 7.5
v 0.4 0.05 3.75
v -0.1 -0.05 7.5
v 0.4 0.05 3.75
v -0.4 0.05 3.75
v 0.1 -0.05 7.5
v 0.1 0.05 7.5
v 0.4 0.45 3.75
v 0.4 0.05 3.75
v 0.1 0.05 7.5
v -0.1 0.05 7.5
v -0.4 0.45 3.75
v 0.1 0.05 7.5
v -0.4 0.45 3.75
v 0.4 0.45 3.75
v -0.1 0.05 7.5
v -0.1 -0.05 7.5
v -0.4 0.05 3.75
v -0.4 0.45 3.75
v -0.4 0.05 3.75
v 0.4 0.05 3.75
v 0.5 0.25 0
v -0.4 0.05 3.75
v 0.5 0.25 0
v -0.5 0.25 0
v 0.4 0.05 3.75
v 0.4 0.45 3.75
v 0.5 0.75 0
v 0.5 0.25 0
v 0.4 0.45 3.75
v -0.4 0.45 3.75
v -0.5 0.75 0
v 0.4 0.45 3.75
v -0.5 0.75 0
v 0.5 0.75 0
v -0.4 0.45 3.75
v -0.4 0.05 3.75
v -0.5 0.25 0
v -0.5 0.75 0
v -0.5 0.25 0
v 0.5 0.25 0
v 0.4 0.05 -3.75
v -0.4 0.05 -3.75
v 0.5 0.25 0
v 0.5 0.75 0
v 0.4 0.45 -3.75
v 0.4 0.05 -3.75
v 0.5 0.75 0
v -0.5 0.75 0
v -0.4 0.45 -3.75
v 0.4 0.45 -3.75
v -0.5 0.75 0
v -0.5 0.25 0
v -0.4 0.05 -3.75
v -0.4 0.45 -3.75
v -0.4 0.05 -3.75
v 0.4 0.05 -3.75
v 0.15 -0.05 -7.5
v -0.15 -0.05 -7.5
v 0.4 0.05 -3.75
v 0.4 0.45 -3.75
v 0.15 0.05 -7.5
v 0.15 -0.05 -7.5
v 0.4 0.45 -3.75
v -0.4 0.45 -3.75
v -0.15 0.05 -7.5
v 0.15 0.05 -7.5
v -0.4 0.45 -3.75
v -0.4 0.05 -3.75
v -0.15 -0.05 -7.5
v -0.15 0.05 -7.5
v -0.25 0 2.5
v -5 0 0
v -0.25 0 -1
v -5 0 0
v -4 0 -1
v -0.25 0 -1
v 0.25 0 2.5
v 5 0 0
v 0.25 0 -1
v 4 0 -1
v 0 0.25 -7
v 0 0 -7
v 0 1.5 -6.5
v 0 -0.05 -7
v 0 0 -7
v 0 -0.25 -6.75
v -1 0 2.5
v -1.5 0 2.5
v -1.25 0.25 2.25
v 1 0 2.5
v 1.5 0 2.5
v 1.25 0.25 2.25

vt 0.245 0.5
vt 0.255 0.5
vt 0.27 0.375
vt 0.245 0.5
vt 0.27 0.375
vt 0.23 0.375
vt 0.255 0.5
vt 0.255 0.5
vt 0.27 0.375
vt 0.27 0.375
vt 0.255 0.5
vt 0.245 0.5
vt 0.23 0.375
vt 0.255 0.5
vt 0.23 0.375
vt 0.27 0.375
vt 0.245 0.5
vt 0.245 0.5
vt 0.23 0.375
vt 0.23 0.375
vt 0.23 0.375
vt 0.27 0.375
vt 0.275 0.25
vt 0.23 0.375
vt 0.275 0.25
vt 0.225 0.25
vt 0.27 0.375
vt 0.27 0.375
vt 0.275 0.25
vt 0.275 0.25
vt 0.27 0.375
vt 0.23 0.375
vt 0.225 0.25
vt 0.27 0.375
vt 0.225 0.25
vt 0.275 0.25
vt 0.23 0.375
vt 0.23 0.375
vt 0.225 0.25
vt 0.225 0.25
vt 0.225 0.25
vt 0.275 0.25
vt 0.27 0.125
vt 0.23 0.125
vt 0.275 0.25
vt 0.275 0.25
vt 0.27 0.125
vt 0.27 0.125
vt 0.275 0.25
vt 0.225 0.25
vt 0.23 0.125
vt 0.27 0.125
vt 0.225 0.25
vt 0.225 0.25
vt 0.23 0.125
vt 0.23 0.125
vt 0.23 0.125
vt 0.27 0.125
vt 0.2575 0
vt 0.2425 0
vt 0.27 0.125
vt 0.27 0.125
vt 0.2575 0
vt 0.2575 0
vt 0.27 0.125
vt 0.23 0.125
vt 0.2425 0
vt 0.2575 0
vt 0.23 0.125
vt 0.23 0.125
vt 0.2425 0
vt 0.2425 0
vt 0.2375 0.333333
vt 0 0.25
vt 0.2375 0.216667
vt 0 0.25
vt 0.05 0.216667
vt 0.2375 0.216667
vt 0.2625 0.333333
vt 0.5 0.25
vt 0.2625 0.216667
vt 0.45 0.216667
vt 0.25 0.0166667
vt 0.25 0.0166667
vt 0.25 0.0333333
vt 0.25 0.0166667
vt 0.25 0.0166667
vt 0.25 0.025
vt 0.2 0.333333
vt 0.175 0.333333
vt 0.1875 0.325
vt 0.3 0.333333
vt 0.325 0.333333
vt 0.3125 0.325

vn -0 0.499822 0.0133286
vn -0 0.499822 0.0133286
vn -0 0.499822 0.0133286
vn 0 0.499822 0.0133286
vn 0 0.499822 0.0133286
vn 0 0.499822 0.0133286
vn -0.498408 0 -0.0398726
vn -0.498408 0 -0.0398726
vn -0.498408 0 -0.0398726
vn -0.498408 0 -0.0398726
vn -0 -0.49718 -0.0530325
vn -0 -0.49718 -0.0530325
vn -0 -0.49718 -0.0530325
vn 0 -0.49718 -0.0530325
vn 0 -0.49718 -0.0530325
vn 0 -0.49718 -0.0530325
vn 0.498408 0 -0.0398726
vn 0.498408 0 -0.0398726
vn 0.498408 0 -0.0398726
vn 0.498408 0 -0.0398726
vn -0 0.49929 0.0266288
vn -0 0.49929 0.0266288
vn -0 0.49929 0.0266288
vn 0 0.49929 0.0266288
vn 0 0.49929 0.0266288
vn 0 0.49929 0.0266288
vn -0.499822 0 -0.0133286
vn -0.499822 0 -0.0133286
vn -0.499822 0 -0.0133286
vn -0.499822 0 -0.0133286
vn -0 -0.498408 -0.0398726
vn -0 -0.498408 -0.0398726
vn -0 -0.498408 -0.0398726
vn 0 -0.498408 -0.0398726
vn 0 -0.498408 -0.0398726
vn 0 -0.498408 -0.0398726
vn 0.499822 0 -0.0133286
vn 0.499822 0 -0.0133286
vn 0.499822 0 -0.0133286
vn 0.499822 0 -0.0133286
vn 0 0.49929 -0.0266288
vn 0 0.49929 -0.0266288
vn 0 0.49929 -0.0266288
vn 0 0.49929 -0.0266288
vn -0.499822 0 0.0133286
vn -0.499822 0 0.0133286
vn -0.499822 0 0.0133286
vn -0.499822 0 0.0133286
vn 0 -0.498408 0.0398726
vn 0 -0.498408 0.0398726
vn 0 -0.498408 0.0398726
vn 0 -0.498408 0.0398726
vn 0.499822 0 0.0133286
vn 0.499822 0 0.0133286
vn 0.499822 0 0.0133286
vn 0.499822 0 0.0133286
vn 0 0.499822 -0.0133286
vn 0 0.499822 -0.0133286
vn 0 0.499822 -0.0133286
vn 0 0.499822 -0.0133286
vn -0.498893 0 0.0332595
vn -0.498893 0 0.0332595
vn -0.498893 0 0.0332595
vn -0.498893 0 0.0332595
vn 0 -0.49718 0.0530325
vn 0 -0.49718 0.0530325
vn 0 -0.49718 0.0530325
vn 0 -0.49718 0.0530325
vn 0.498893 0 0.0332595
vn 0.498893 0 0.0332595
vn 0.498893 0 0.0332595
vn 0.498893 0 0.0332595
vn 0 -0.5 -0
vn 0 -0.5 -0
vn 0 -0.5 -0
vn 0 -0.5 0
vn 0 -0.5 0
vn 0 -0.5 0
vn 0 0.5 0
vn 0 0.5 0
vn 0 0.5 0
vn 0 0.5 0
vn -0.5 0 0
vn -0.5 0 0
vn -0.5 0 0
vn 0.5 0 -0
vn 0.5 0 -0
vn 0.5 0 -0
vn -0 -0.353553 -0.353553
vn -0 -0.353553 -0.353553
vn -0 -0.353553 -0.353553
vn -0 0.353553 0.353553
vn -0 0.353553 0.353553
vn -0 0.353553 0.353553

usemtl material_0
f 1/1/1 2/2/2 3/3/3
f 4/4/4 5/5/5 6/6/6
f 7/7/7 8/8/8 9/9/9
f 7/7/7 9/9/9 10/10/10
f 11/11/11 12/12/12 13/13/13
f 14/14/14 15/15/15 16/16/16
f 17/17/17 18/18/18 19/19/19
f 17/17/17 19/19/19 20/20/20
f 21/21/21 22/22/22 23/23/23
f 24/24/24 25/25/25 26/26/26
f 27/27/27 28/28/28 29/29/29
f 27/27/27 29/29/29 30/30/30
f 31/31/31 32/32/32 33/33/33
f 34/34/34 35/35/35 36/36/36
f 37/37/37 38/38/38 39/39/39
f 37/37/37 39/39/39 40/40/40
f 41/41/41 42/42/42 43/43/43
f 41/41/41 43/43/43 44/44/44
f 45/45/45 46/46/46 47/47/47
f 45/45/45 47/47/47 48/48/48
f 49/49/49 50/50/50 51/51/51
f 49/49/49 51/51/51 52/52/52
f 53/53/53 54/54/54 55/55/55
f 53/53/53 55/55/55 56/56/56
f 57/57/57 58/58/58 59/59/59
f 57/57/57 59/59/59 60/60/60
f 61/61/61 62/62/62 63/63/63
f 61/61/61 63/63/63 64/64/64
f 65/65/65 66/66/66 67/67/67
f 65/65/65 67/67/67 68/68/68
f 69/69/69 70/70/70 71/71/71
f 69/69/69 71/71/71 72/72/72

usemtl material_0
f 73/73/73 74/74/74 75/75/75
f 76/76/76 77/77/77 78/78/78
f 79/79/79 80/80/80 81/81/81
f 80/80/80 82/82/82 81/81/81

usemtl material_0
f 83/83/83 84/84/84 85/85/85
f 86/86/86 87/87/87 88/88/88

usemtl material_0
f 89/89/89 90/90/90 91/91/91
f 92/92/92 93/93/93 94/94/94

