# Exported from MXVK MXModel
mtllib large_cylinder.mtl

v 5 0 -20
v 4.6194 1.91342 -20
v 5 0 20
v 4.6194 1.91342 20
v 3.53553 3.53553 -20
v 3.53553 3.53553 20
v 1.91342 4.6194 -20
v 1.91342 4.6194 20
v 0 5 -20
v 0 5 20
v -1.91342 4.6194 -20
v -1.91342 4.6194 20
v -3.53553 3.53553 -20
v -3.53553 3.53553 20
v -4.6194 1.91342 -20
v -4.6194 1.91342 20
v -5 0 -20
v -5 0 20
v -4.6194 -1.91342 -20
v -4.6194 -1.91342 20
v -3.53553 -3.53553 -20
v -3.53553 -3.53553 20
v -1.91342 -4.6194 -20
v -1.91342 -4.6194 20
v -0 -5 -20
v -0 -5 20
v 1.91342 -4.6194 -20
v 1.91342 -4.6194 20
v 3.53553 -3.53553 -20
v 3.53553 -3.53553 20
v 4.6194 -1.91342 -20
v 4.6194 -1.91342 20
v 5 -0 -20
v 5 -0 20
v 5 0 20
v 4.6194 1.91342 20
v 0 0 35
v 4.6194 1.91342 20
v 3.53553 3.53553 20
v 0 0 35
v 3.53553 3.53553 20
v 1.91342 4.6194 20
v 0 0 35
v 1.91342 4.6194 20
v 0 5 20
v 0 0 35
v 0 5 20
v -1.91342 4.6194 20
v 0 0 35
v -1.91342 4.6194 20
v -3.53553 3.53553 20
v 0 0 35
v -3.53553 3.53553 20
v -4.6194 1.91342 20
v 0 0 35
v -4.6194 1.91342 20
v -5 0 20
v 0 0 35
v -5 0 20
v -4.6194 -1.91342 20
v 0 0 35
v -4.6194 -1.91342 20
v -3.53553 -3.53553 20
v 0 0 35
v -3.53553 -3.53553 20
v -1.91342 -4.6194 20
v 0 0 35
v -1.91342 -4.6194 20
v -0 -5 20
v 0 0 35
v -0 -5 20
v 1.91342 -4.6194 20
v 0 0 35
v 1.91342 -4.6194 20
v 3.53553 -3.53553 20
v 0 0 35
v 3.53553 -3.53553 20
v 4.6194 -1.91342 20
v 0 0 35
v 4.6194 -1.91342 20
v 5 -0 20
v 0 0 35
v 4.6194 1.91342 -20
v 5 0 -20
v 0 0 -35
v 3.53553 3.53553 -20
v 4.6194 1.91342 -20
v 0 0 -35
v 1.91342 4.6194 -20
v 3.53553 3.53553 -20
v 0 0 -35
v 0 5 -20
v 1.91342 4.6194 -20
v 0 0 -35
v -1.91342 4.6194 -20
v 0 5 -20
v 0 0 -35
v -3.53553 3.53553 -20
v -1.91342 4.6194 -20
v 0 0 -35
v -4.6194 1.91342 -20
v -3.53553 3.53553 -20
v 0 0 -35
v -5 0 -20
v -4.6194 1.91342 -20
v 0 0 -35
v -4.6194 -1.91342 -20
v -5 0 -20
v 0 0 -35
v -3.53553 -3.53553 -20
v -4.6194 -1.91342 -20
v 0 0 -35
v -1.91342 -4.6194 -20
v -3.53553 -3.53553 -20
v 0 0 -35
v -0 -5 -20
v -1.91342 -4.6194 -20
v 0 0 -35
v 1.91342 -4.6194 -20
v -0 -5 -20
v 0 0 -35
v 3.53553 -3.53553 -20
v 1.91342 -4.6194 -20
v 0 0 -35
v 4.6194 -1.91342 -20
v 3.53553 -3.53553 -20
v 0 0 -35
v 5 -0 -20
v 4.6194 -1.91342 -20
v 0 0 -35

vt 0 0
vt 0.0625 0
vt 0 1
vt 0.0625 1
vt 0.125 0
vt 0.125 1
vt 0.1875 0
vt 0.1875 1
vt 0.25 0
vt 0.25 1
vt 0.3125 0
vt 0.3125 1
vt 0.375 0
vt 0.375 1
vt 0.4375 0
vt 0.4375 1
vt 0.5 0
vt 0.5 1
vt 0.5625 0
vt 0.5625 1
vt 0.625 0
vt 0.625 1
vt 0.6875 0
vt 0.6875 1
vt 0.75 0
vt 0.75 1
vt 0.8125 0
vt 0.8125 1
vt 0.875 0
vt 0.875 1
vt 0.9375 0
vt 0.9375 1
vt 1 0
vt 1 1
vt 0 0
vt 0.0625 0
vt 0.03125 1
vt 0.0625 0
vt 0.125 0
vt 0.09375 1
vt 0.125 0
vt 0.1875 0
vt 0.15625 1
vt 0.1875 0
vt 0.25 0
vt 0.21875 1
vt 0.25 0
vt 0.3125 0
vt 0.28125 1
vt 0.3125 0
vt 0.375 0
vt 0.34375 1
vt 0.375 0
vt 0.4375 0
vt 0.40625 1
vt 0.4375 0
vt 0.5 0
vt 0.46875 1
vt 0.5 0
vt 0.5625 0
vt 0.53125 1
vt 0.5625 0
vt 0.625 0
vt 0.59375 1
vt 0.625 0
vt 0.6875 0
vt 0.65625 1
vt 0.6875 0
vt 0.75 0
vt 0.71875 1
vt 0.75 0
vt 0.8125 0
vt 0.78125 1
vt 0.8125 0
vt 0.875 0
vt 0.84375 1
vt 0.875 0
vt 0.9375 0
vt 0.90625 1
vt 0.9375 0
vt 1 0
vt 0.96875 1
vt 0.0625 0
vt 0 0
vt 0.03125 1
vt 0.125 0
vt 0.0625 0
vt 0.09375 1
vt 0.1875 0
vt 0.125 0
vt 0.15625 1
vt 0.25 0
vt 0.1875 0
vt 0.21875 1
vt 0.3125 0
vt 0.25 0
vt 0.28125 1
vt 0.375 0
vt 0.3125 0
vt 0.34375 1
vt 0.4375 0
vt 0.375 0
vt 0.40625 1
vt 0.5 0
vt 0.4375 0
vt 0.46875 1
vt 0.5625 0
vt 0.5 0
vt 0.53125 1
vt 0.625 0
vt 0.5625 0
vt 0.59375 1
vt 0.6875 0
vt 0.625 0
vt 0.65625 1
vt 0.75 0
vt 0.6875 0
vt 0.71875 1
vt 0.8125 0
vt 0.75 0
vt 0.78125 1
vt 0.875 0
vt 0.8125 0
vt 0.84375 1
vt 0.9375 0
vt 0.875 0
vt 0.90625 1
vt 1 0
vt 0.9375 0
vt 0.96875 1

vn 1 0 0
vn 0.92388 0.382683 0
vn 1 0 0
vn 0.92388 0.382683 0
vn 0.707107 0.707107 0
vn 0.707107 0.707107 0
vn 0.382683 0.92388 0
vn 0.382683 0.92388 0
vn 0 1 0
vn 0 1 0
vn -0.382683 0.92388 0
vn -0.382683 0.92388 0
vn -0.707107 0.707107 0
vn -0.707107 0.707107 0
vn -0.92388 0.382683 0
vn -0.92388 0.382683 0
vn -1 0 0
vn -1 0 0
vn -0.92388 -0.382683 0
vn -0.92388 -0.382683 0
vn -0.707107 -0.707107 0
vn -0.707107 -0.707107 0
vn -0.382683 -0.92388 0
vn -0.382683 -0.92388 0
vn -0 -1 0
vn -0 -1 0
vn 0.382683 -0.92388 0
vn 0.382683 -0.92388 0
vn 0.707107 -0.707107 0
vn 0.707107 -0.707107 0
vn 0.92388 -0.382683 0
vn 0.92388 -0.382683 0
vn 1 -0 0
vn 1 -0 0
vn 0.93223 0.185432 0.310743
vn 0.93223 0.185432 0.310743
vn 0.93223 0.185432 0.310743
vn 0.790307 0.528066 0.310743
vn 0.790307 0.528066 0.310743
vn 0.790307 0.528066 0.310743
vn 0.528066 0.790307 0.310743
vn 0.528066 0.790307 0.310743
vn 0.528066 0.790307 0.310743
vn 0.185432 0.93223 0.310743
vn 0.185432 0.93223 0.310743
vn 0.185432 0.93223 0.310743
vn -0.185432 0.93223 0.310743
vn -0.185432 0.93223 0.310743
vn -0.185432 0.93223 0.310743
vn -0.528066 0.790307 0.310743
vn -0.528066 0.790307 0.310743
vn -0.528066 0.790307 0.310743
vn -0.790307 0.528066 0.310743
vn -0.790307 0.528066 0.310743
vn -0.790307 0.528066 0.310743
vn -0.93223 0.185432 0.310743
vn -0.93223 0.185432 0.310743
vn -0.93223 0.185432 0.310743
vn -0.93223 -0.185432 0.310743
vn -0.93223 -0.185432 0.310743
vn -0.93223 -0.185432 0.310743
vn -0.790307 -0.528066 0.310743
vn -0.790307 -0.528066 0.310743
vn -0.790307 -0.528066 0.310743
vn -0.528066 -0.790307 0.310743
vn -0.528066 -0.790307 0.310743
vn -0.528066 -0.790307 0.310743
vn -0.185432 -0.93223 0.310743
vn -0.185432 -0.93223 0.310743
vn -0.185432 -0.93223 0.310743
vn 0.185432 -0.93223 0.310743
vn 0.185432 -0.93223 0.310743
vn 0.185432 -0.93223 0.310743
vn 0.528066 -0.790307 0.310743
vn 0.528066 -0.790307 0.310743
vn 0.528066 -0.790307 0.310743
vn 0.790307 -0.528066 0.310743
vn 0.790307 -0.528066 0.310743
vn 0.790307 -0.528066 0.310743
vn 0.93223 -0.185432 0.310743
vn 0.93223 -0.185432 0.310743
vn 0.93223 -0.185432 0.310743
vn 0.93223 0.185432 -0.310743
vn 0.93223 0.185432 -0.310743
vn 0.93223 0.185432 -0.310743
vn 0.790307 0.528066 -0.310743
vn 0.790307 0.528066 -0.310743
vn 0.790307 0.528066 -0.310743
vn 0.528066 0.790307 -0.310743
vn 0.528066 0.790307 -0.310743
vn 0.528066 0.790307 -0.310743
vn 0.185432 0.93223 -0.310743
vn 0.185432 0.93223 -0.310743
vn 0.185432 0.93223 -0.310743
vn -0.185432 0.93223 -0.310743
vn -0.185432 0.93223 -0.310743
vn -0.185432 0.93223 -0.310743
vn -0.528066 0.790307 -0.310743
vn -0.528066 0.790307 -0.310743
vn -0.528066 0.790307 -0.310743
vn -0.790307 0.528066 -0.310743
vn -0.790307 0.528066 -0.310743
vn -0.790307 0.528066 -0.310743
vn -0.93223 0.185432 -0.310743
vn -0.93223 0.185432 -0.310743
vn -0.93223 0.185432 -0.310743
vn -0.93223 -0.185432 -0.310743
vn -0.93223 -0.185432 -0.310743
vn -0.93223 -0.185432 -0.310743
vn -0.790307 -0.528066 -0.310743
vn -0.790307 -0.528066 -0.310743
vn -0.790307 -0.528066 -0.310743
vn -0.528066 -0.790307 -0.310743
vn -0.528066 -0.790307 -0.310743
vn -0.528066 -0.790307 -0.310743
vn -0.185432 -0.93223 -0.310743
vn -0.185432 -0.93223 -0.310743
vn -0.185432 -0.93223 -0.310743
vn 0.185432 -0.93223 -0.310743
vn 0.185432 -0.93223 -0.310743
vn 0.185432 -0.93223 -0.310743
vn 0.528066 -0.790307 -0.310743
vn 0.528066 -0.790307 -0.310743
vn 0.528066 -0.790307 -0.310743
vn 0.790307 -0.528066 -0.310743
vn 0.790307 -0.528066 -0.310743
vn 0.790307 -0.528066 -0.310743
vn 0.93223 -0.185432 -0.310743
vn 0.93223 -0.185432 -0.310743
vn 0.93223 -0.185432 -0.310743

usemtl material_0
f 1/1/1 2/2/2 3/3/3
f 2/2/2 4/4/4 3/3/3
f 2/2/2 5/5/5 4/4/4
f 5/5/5 6/6/6 4/4/4
f 5/5/5 7/7/7 6/6/6
f 7/7/7 8/8/8 6/6/6
f 7/7/7 9/9/9 8/8/8
f 9/9/9 10/10/10 8/8/8
f 9/9/9 11/11/11 10/10/10
f 11/11/11 12/12/12 10/10/10
f 11/11/11 13/13/13 12/12/12
f 13/13/13 14/14/14 12/12/12
f 13/13/13 15/15/15 14/14/14
f 15/15/15 16/16/16 14/14/14
f 15/15/15 17/17/17 16/16/16
f 17/17/17 18/18/18 16/16/16
f 17/17/17 19/19/19 18/18/18
f 19/19/19 20/20/20 18/18/18
f 19/19/19 21/21/21 20/20/20
f 21/21/21 22/22/22 20/20/20
f 21/21/21 23/23/23 22/22/22
f 23/23/23 24/24/24 22/22/22
f 23/23/23 25/25/25 24/24/24
f 25/25/25 26/26/26 24/24/24
f 25/25/25 27/27/27 26/26/26
f 27/27/27 28/28/28 26/26/26
f 27/27/27 29/29/29 28/28/28
f 29/29/29 30/30/30 28/28/28
f 29/29/29 31/31/31 30/30/30
f 31/31/31 32/32/32 30/30/30
f 31/31/31 33/33/33 32/32/32
f 33/33/33 34/34/34 32/32/32
f 35/35/35 36/36/36 37/37/37
f 38/38/38 39/39/39 40/40/40
f 41/41/41 42/42/42 43/43/43
f 44/44/44 45/45/45 46/46/46
f 47/47/47 48/48/48 49/49/49
f 50/50/50 51/51/51 52/52/52
f 53/53/53 54/54/54 55/55/55
f 56/56/56 57/57/57 58/58/58
f 59/59/59 60/60/60 61/61/61
f 62/62/62 63/63/63 64/64/64
f 65/65/65 66/66/66 67/67/67
f 68/68/68 69/69/69 70/70/70
f 71/71/71 72/72/72 73/73/73
f 74/74/74 75/75/75 76/76/76
f 77/77/77 78/78/78 79/79/79
f 80/80/80 81/81/81 82/82/82
f 83/83/83 84/84/84 85/85/85
f 86/86/86 87/87/87 88/88/88
f 89/89/89 90/90/90 91/91/91
f 92/92/92 93/93/93 94/94/94
f 95/95/95 96/96/96 97/97/97
f 98/98/98 99/99/99 100/100/100
f 101/101/101 102/102/102 103/103/103
f 104/104/104 105/105/105 106/106/106
f 107/107/107 108/108/108 109/109/109
f 110/110/110 111/111/111 112/112/112
f 113/113/113 114/114/114 115/115/115
f 116/116/116 117/117/117 118/118/118
f 119/119/119 120/120/120 121/121/121
f 122/122/122 123/123/123 124/124/124
f 125/125/125 126/126/126 127/127/127
f 128/128/128 129/129/129 130/130/130

