# Exported from MXVK MXModel
mtllib new_diamond.mtl

v 0 5 0
v 5 0 0
v 0 0 5
v 0 5 0
v 0 0 -5
v 5 0 0
v 0 5 0
v -5 0 0
v 0 0 -5
v 0 5 0
v 0 0 5
v -5 0 0
v 0 -5 0
v 0 0 5
v 5 0 0
v 0 -5 0
v 5 0 0
v 0 0 -5
v 0 -5 0
v 0 0 -5
v -5 0 0
v 0 -5 0
v -5 0 0
v 0 0 5

vt 0.5 1
vt 0.25 0.5
vt 0 0.5
vt 0.5 1
vt 0.5 0.5
vt 0.25 0.5
vt 0.5 1
vt 0.75 0.5
vt 0.5 0.5
vt 0.5 1
vt 1 0.5
vt 0.75 0.5
vt 0.5 0
vt 0 0.5
vt 0.25 0.5
vt 0.5 0
vt 0.25 0.5
vt 0.5 0.5
vt 0.5 0
vt 0.5 0.5
vt 0.75 0.5
vt 0.5 0
vt 0.75 0.5
vt 1 0.5

vn -0.57735 -0.57735 -0.57735
vn -0.57735 -0.57735 -0.57735
vn -0.57735 -0.57735 -0.57735
vn -0.57735 -0.57735 0.57735
vn -0.57735 -0.57735 0.57735
vn -0.57735 -0.57735 0.57735
vn 0.57735 -0.57735 0.57735
vn 0.57735 -0.57735 0.57735
vn 0.57735 -0.57735 0.57735
vn 0.57735 -0.57735 -0.57735
vn 0.57735 -0.57735 -0.57735
vn 0.57735 -0.57735 -0.57735
vn -0.57735 0.57735 -0.57735
vn -0.57735 0.57735 -0.57735
vn -0.57735 0.57735 -0.57735
vn -0.57735 0.57735 0.57735
vn -0.57735 0.57735 0.57735
vn -0.57735 0.57735 0.57735
vn 0.57735 0.57735 0.57735
vn 0.57735 0.57735 0.57735
vn 0.57735 0.57735 0.57735
vn 0.57735 0.57735 -0.57735
vn 0.57735 0.57735 -0.57735
vn 0.57735 0.57735 -0.57735

usemtl material_0
f 1/1/1 2/2/2 3/3/3
f 4/4/4 5/5/5 6/6/6
f 7/7/7 8/8/8 9/9/9
f 10/10/10 11/11/11 12/12/12
f 13/13/13 14/14/14 15/15/15
f 16/16/16 17/17/17 18/18/18
f 19/19/19 20/20/20 21/21/21
f 22/22/22 23/23/23 24/24/24

