# Exported from MXVK MXModel
mtllib skybox_cross.mtl

v 2.5 2.5 2.5
v 2.5 2.5 -2.5
v 20 2.5 -2.5
v 20 2.5 2.5
v 2.5 2.5 -2.5
v 2.5 -2.5 -2.5
v 20 -2.5 -2.5
v 2.5 2.5 -2.5
v 20 -2.5 -2.5
v 20 2.5 -2.5
v 2.5 -2.5 -2.5
v 2.5 -2.5 2.5
v 20 -2.5 2.5
v 20 -2.5 -2.5
v 2.5 -2.5 2.5
v 2.5 2.5 2.5
v 20 2.5 2.5
v 20 -2.5 2.5
v 20 2.5 2.5
v 20 2.5 -2.5
v 20 -2.5 -2.5
v 20 2.5 2.5
v 20 -2.5 -2.5
v 20 -2.5 2.5
v -2.5 2.5 2.5
v -20 2.5 -2.5
v -2.5 2.5 -2.5
v -20 2.5 2.5
v -2.5 2.5 -2.5
v -20 -2.5 -2.5
v -2.5 -2.5 -2.5
v -2.5 2.5 -2.5
v -20 2.5 -2.5
v -20 -2.5 -2.5
v -2.5 -2.5 -2.5
v -20 -2.5 2.5
v -2.5 -2.5 2.5
v -20 -2.5 -2.5
v -2.5 -2.5 2.5
v -20 2.5 2.5
v -2.5 2.5 2.5
v -2.5 -2.5 2.5
v -20 -2.5 2.5
v -20 2.5 2.5
v -20 2.5 2.5
v -20 -2.5 -2.5
v -20 2.5 -2.5
v -20 2.5 2.5
v -20 -2.5 2.5
v -20 -2.5 -2.5
v 2.5 2.5 2.5
v -2.5 2.5 2.5
v -2.5 20 2.5
v 2.5 20 2.5
v -2.5 2.5 2.5
v -2.5 2.5 -2.5
v -2.5 20 -2.5
v -2.5 2.5 2.5
v -2.5 20 -2.5
v -2.5 20 2.5
v -2.5 2.5 -2.5
v 2.5 2.5 -2.5
v 2.5 20 -2.5
v -2.5 20 -2.5
v 2.5 2.5 -2.5
v 2.5 2.5 2.5
v 2.5 20 2.5
v 2.5 20 -2.5
v 2.5 20 2.5
v -2.5 20 2.5
v -2.5 20 -2.5
v 2.5 20 2.5
v -2.5 20 -2.5
v 2.5 20 -2.5
v 2.5 -2.5 2.5
v -2.5 -20 2.5
v -2.5 -2.5 2.5
v 2.5 -20 2.5
v -2.5 -2.5 2.5
v -2.5 -20 -2.5
v -2.5 -2.5 -2.5
v -2.5 -2.5 2.5
v -2.5 -20 2.5
v -2.5 -20 -2.5
v -2.5 -2.5 -2.5
v 2.5 -20 -2.5
v 2.5 -2.5 -2.5
v -2.5 -20 -2.5
v 2.5 -2.5 -2.5
v 2.5 -20 2.5
v 2.5 -2.5 2.5
v 2.5 -2.5 -2.5
v 2.5 -20 -2.5
v 2.5 -20 2.5
v 2.5 -20 2.5
v -2.5 -20 -2.5
v -2.5 -20 2.5
v 2.5 -20 2.5
v 2.5 -20 -2.5
v -2.5 -20 -2.5
v 2.5 2.5 2.5
v 2.5 -2.5 2.5
v 2.5 -2.5 20
v 2.5 2.5 20
v 2.5 -2.5 2.5
v -2.5 -2.5 2.5
v -2.5 -2.5 20
v 2.5 -2.5 2.5
v -2.5 -2.5 20
v 2.5 -2.5 20
v -2.5 -2.5 2.5
v -2.5 2.5 2.5
v -2.5 2.5 20
v -2.5 -2.5 20
v -2.5 2.5 2.5
v 2.5 2.5 2.5
v 2.5 2.5 20
v -2.5 2.5 20
v 2.5 2.5 20
v 2.5 -2.5 20
v -2.5 -2.5 20
v 2.5 2.5 20
v -2.5 -2.5 20
v -2.5 2.5 20
v 2.5 2.5 -2.5
v 2.5 -2.5 -20
v 2.5 -2.5 -2.5
v 2.5 2.5 -20
v 2.5 -2.5 -2.5
v -2.5 -2.5 -20
v -2.5 -2.5 -2.5
v 2.5 -2.5 -2.5
v 2.5 -2.5 -20
v -2.5 -2.5 -20
v -2.5 -2.5 -2.5
v -2.5 2.5 -20
v -2.5 2.5 -2.5
v -2.5 -2.5 -20
v -2.5 2.5 -2.5
v 2.5 2.5 -20
v 2.5 2.5 -2.5
v -2.5 2.5 -2.5
v -2.5 2.5 -20
v 2.5 2.5 -20
v 2.5 2.5 -20
v -2.5 -2.5 -20
v 2.5 -2.5 -20
v 2.5 2.5 -20
v -2.5 2.5 -20
v -2.5 -2.5 -20

vt 0 0
vt 1 0
vt 1 1
vt 0 1
vt 0 0
vt 1 0
vt 1 1
vt 0 0
vt 1 1
vt 0 1
vt 0 0
vt 1 0
vt 1 1
vt 0 1
vt 0 0
vt 1 0
vt 1 1
vt 0 1
vt 0 0
vt 1 0
vt 1 1
vt 0 0
vt 1 1
vt 0 1
vt 0 0
vt 1 1
vt 1 0
vt 0 1
vt 0 0
vt 1 1
vt 1 0
vt 0 0
vt 0 1
vt 1 1
vt 0 0
vt 1 1
vt 1 0
vt 0 1
vt 0 0
vt 1 1
vt 1 0
vt 0 0
vt 0 1
vt 1 1
vt 0 0
vt 1 1
vt 1 0
vt 0 0
vt 0 1
vt 1 1
vt 0 0
vt 1 0
vt 1 1
vt 0 1
vt 0 0
vt 1 0
vt 1 1
vt 0 0
vt 1 1
vt 0 1
vt 0 0
vt 1 0
vt 1 1
vt 0 1
vt 0 0
vt 1 0
vt 1 1
vt 0 1
vt 0 0
vt 1 0
vt 1 1
vt 0 0
vt 1 1
vt 0 1
vt 0 0
vt 1 1
vt 1 0
vt 0 1
vt 0 0
vt 1 1
vt 1 0
vt 0 0
vt 0 1
vt 1 1
vt 0 0
vt 1 1
vt 1 0
vt 0 1
vt 0 0
vt 1 1
vt 1 0
vt 0 0
vt 0 1
vt 1 1
vt 0 0
vt 1 1
vt 1 0
vt 0 0
vt 0 1
vt 1 1
vt 0 0
vt 1 0
vt 1 1
vt 0 1
vt 0 0
vt 1 0
vt 1 1
vt 0 0
vt 1 1
vt 0 1
vt 0 0
vt 1 0
vt 1 1
vt 0 1
vt 0 0
vt 1 0
vt 1 1
vt 0 1
vt 0 0
vt 1 0
vt 1 1
vt 0 0
vt 1 1
vt 0 1
vt 0 0
vt 1 1
vt 1 0
vt 0 1
vt 0 0
vt 1 1
vt 1 0
vt 0 0
vt 0 1
vt 1 1
vt 0 0
vt 1 1
vt 1 0
vt 0 1
vt 0 0
vt 1 1
vt 1 0
vt 0 0
vt 0 1
vt 1 1
vt 0 0
vt 1 1
vt 1 0
vt 0 0
vt 0 1
vt 1 1

vn 0 -1 0
vn 0 -1 0
vn 0 -1 0
vn 0 -1 0
vn 0 0 1
vn 0 0 1
vn 0 0 1
vn -0 0 1
vn -0 0 1
vn -0 0 1
vn 0 1 0
vn 0 1 0
vn 0 1 0
vn 0 1 0
vn 0 0 -1
vn 0 0 -1
vn 0 0 -1
vn 0 0 -1
vn -1 0 -0
vn -1 0 -0
vn -1 0 -0
vn -1 -0 0
vn -1 -0 0
vn -1 -0 0
vn -0 -1 -0
vn -0 -1 -0
vn -0 -1 -0
vn -0 -1 -0
vn -0 0 1
vn -0 0 1
vn -0 0 1
vn 0 -0 1
vn 0 -0 1
vn 0 -0 1
vn -0 1 -0
vn -0 1 -0
vn -0 1 -0
vn -0 1 -0
vn -0 0 -1
vn -0 0 -1
vn -0 0 -1
vn -0 -0 -1
vn -0 -0 -1
vn -0 -0 -1
vn 1 -0 0
vn 1 -0 0
vn 1 -0 0
vn 1 0 -0
vn 1 0 -0
vn 1 0 -0
vn 0 0 -1
vn 0 0 -1
vn 0 0 -1
vn 0 0 -1
vn 1 0 0
vn 1 0 0
vn 1 0 0
vn 1 -0 0
vn 1 -0 0
vn 1 -0 0
vn 0 0 1
vn 0 0 1
vn 0 0 1
vn 0 0 1
vn -1 0 0
vn -1 0 0
vn -1 0 0
vn -1 0 0
vn -0 -1 0
vn -0 -1 0
vn -0 -1 0
vn 0 -1 -0
vn 0 -1 -0
vn 0 -1 -0
vn -0 -0 -1
vn -0 -0 -1
vn -0 -0 -1
vn -0 -0 -1
vn 1 -0 0
vn 1 -0 0
vn 1 -0 0
vn 1 0 -0
vn 1 0 -0
vn 1 0 -0
vn -0 -0 1
vn -0 -0 1
vn -0 -0 1
vn -0 -0 1
vn -1 -0 0
vn -1 -0 0
vn -1 -0 0
vn -1 -0 -0
vn -1 -0 -0
vn -1 -0 -0
vn 0 1 -0
vn 0 1 -0
vn 0 1 -0
vn -0 1 0
vn -0 1 0
vn -0 1 0
vn -1 0 0
vn -1 0 0
vn -1 0 0
vn -1 0 0
vn 0 1 0
vn 0 1 0
vn 0 1 0
vn 0 1 -0
vn 0 1 -0
vn 0 1 -0
vn 1 0 0
vn 1 0 0
vn 1 0 0
vn 1 0 0
vn 0 -1 0
vn 0 -1 0
vn 0 -1 0
vn 0 -1 0
vn 0 -0 -1
vn 0 -0 -1
vn 0 -0 -1
vn -0 0 -1
vn -0 0 -1
vn -0 0 -1
vn -1 -0 -0
vn -1 -0 -0
vn -1 -0 -0
vn -1 -0 -0
vn 0 1 -0
vn 0 1 -0
vn 0 1 -0
vn -0 1 0
vn -0 1 0
vn -0 1 0
vn 1 -0 -0
vn 1 -0 -0
vn 1 -0 -0
vn 1 -0 -0
vn 0 -1 -0
vn 0 -1 -0
vn 0 -1 -0
vn -0 -1 -0
vn -0 -1 -0
vn -0 -1 -0
vn -0 0 1
vn -0 0 1
vn -0 0 1
vn 0 -0 1
vn 0 -0 1
vn 0 -0 1

usemtl material_0
f 1/1/1 2/2/2 3/3/3
f 1/1/1 3/3/3 4/4/4
f 5/5/5 6/6/6 7/7/7
f 8/8/8 9/9/9 10/10/10
f 11/11/11 12/12/12 13/13/13
f 11/11/11 13/13/13 14/14/14
f 15/15/15 16/16/16 17/17/17
f 15/15/15 17/17/17 18/18/18
f 19/19/19 20/20/20 21/21/21
f 22/22/22 23/23/23 24/24/24
f 25/25/25 26/26/26 27/27/27
f 25/25/25 28/28/28 26/26/26
f 29/29/29 30/30/30 31/31/31
f 32/32/32 33/33/33 34/34/34
f 35/35/35 36/36/36 37/37/37
f 35/35/35 38/38/38 36/36/36
f 39/39/39 40/40/40 41/41/41
f 42/42/42 43/43/43 44/44/44
f 45/45/45 46/46/46 47/47/47
f 48/48/48 49/49/49 50/50/50
f 51/51/51 52/52/52 53/53/53
f 51/51/51 53/53/53 54/54/54
f 55/55/55 56/56/56 57/57/57
f 58/58/58 59/59/59 60/60/60
f 61/61/61 62/62/62 63/63/63
f 61/61/61 63/63/63 64/64/64
f 65/65/65 66/66/66 67/67/67
f 65/65/65 67/67/67 68/68/68
f 69/69/69 70/70/70 71/71/71
f 72/72/72 73/73/73 74/74/74
f 75/75/75 76/76/76 77/77/77
f 75/75/75 78/78/78 76/76/76
f 79/79/79 80/80/80 81/81/81
f 82/82/82 83/83/83 84/84/84
f 85/85/85 86/86/86 87/87/87
f 85/85/85 88/88/88 86/86/86
f 89/89/89 90/90/90 91/91/91
f 92/92/92 93/93/93 94/94/94
f 95/95/95 96/96/96 97/97/97
f 98/98/98 99/99/99 100/100/100
f 101/101/101 102/102/102 103/103/103
f 101/101/101 103/103/103 104/104/104
f 105/105/105 106/106/106 107/107/107
f 108/108/108 109/109/109 110/110/110
f 111/111/111 112/112/112 113/113/113
f 111/111/111 113/113/113 114/114/114
f 115/115/115 116/116/116 117/117/117
f 115/115/115 117/117/117 118/118/118
f 119/119/119 120/120/120 121/121/121
f 122/122/122 123/123/123 124/124/124
f 125/125/125 126/126/126 127/127/127
f 125/125/125 128/128/128 126/126/126
f 129/129/129 130/130/130 131/131/131
f 132/132/132 133/133/133 134/134/134
f 135/135/135 136/136/136 137/137/137
f 135/135/135 138/138/138 136/136/136
f 139/139/139 140/140/140 141/141/141
f 142/142/142 143/143/143 144/144/144
f 145/145/145 146/146/146 147/147/147
f 148/148/148 149/149/149 150/150/150

