# Exported from MXVK MXModel
mtllib trapezoid.mtl

v 15 -10 15
v 15 -10 -15
v 10 5 -10
v 10 5 10
v 15 -10 -15
v -15 -10 -15
v -10 5 -10
v 10 5 -10
v -15 -10 -15
v -15 -10 15
v -10 5 10
v -10 5 -10
v -15 -10 15
v 15 -10 15
v 10 5 10
v -15 -10 15
v 10 5 10
v -10 5 10
v 10 5 10
v 10 5 -10
v 4 15 -4
v 4 15 4
v 10 5 -10
v -10 5 -10
v -4 15 -4
v 4 15 -4
v -10 5 -10
v -10 5 10
v -4 15 4
v -4 15 -4
v -10 5 10
v 10 5 10
v 4 15 4
v -10 5 10
v 4 15 4
v -4 15 4
v 4 15 4
v -4 15 4
v -4 15 -4
v 4 15 4
v -4 15 -4
v 4 15 -4

vt 0 0
vt 0.25 0
vt 0.25 0.5
vt 0 0.5
vt 0.25 0
vt 0.5 0
vt 0.5 0.5
vt 0.25 0.5
vt 0.5 0
vt 0.75 0
vt 0.75 0.5
vt 0.5 0.5
vt 0.75 0
vt 1 0
vt 1 0.5
vt 0.75 0
vt 1 0.5
vt 0.75 0.5
vt 0 0.5
vt 0.25 0.5
vt 0.25 1
vt 0 1
vt 0.25 0.5
vt 0.5 0.5
vt 0.5 1
vt 0.25 1
vt 0.5 0.5
vt 0.75 0.5
vt 0.75 1
vt 0.5 1
vt 0.75 0.5
vt 1 0.5
vt 1 1
vt 0.75 0.5
vt 1 1
vt 0.75 1
vt 1 1
vt 0 1
vt 0 0
vt 1 1
vt 0 0
vt 1 0

vn 0.948683 0.316228 0
vn 0.948683 0.316228 0
vn 0.948683 0.316228 0
vn 0.948683 0.316228 0
vn 0 0.316228 -0.948683
vn 0 0.316228 -0.948683
vn 0 0.316228 -0.948683
vn 0 0.316228 -0.948683
vn -0.948683 0.316228 0
vn -0.948683 0.316228 0
vn -0.948683 0.316228 0
vn -0.948683 0.316228 0
vn -0 0.316228 0.948683
vn -0 0.316228 0.948683
vn -0 0.316228 0.948683
vn 0 0.316228 0.948683
vn 0 0.316228 0.948683
vn 0 0.316228 0.948683
vn 0.857493 0.514496 0
vn 0.857493 0.514496 0
vn 0.857493 0.514496 0
vn 0.857493 0.514496 0
vn 0 0.514496 -0.857493
vn 0 0.514496 -0.857493
vn 0 0.514496 -0.857493
vn 0 0.514496 -0.857493
vn -0.857493 0.514496 0
vn -0.857493 0.514496 0
vn -0.857493 0.514496 0
vn -0.857493 0.514496 0
vn -0 0.514496 0.857493
vn -0 0.514496 0.857493
vn -0 0.514496 0.857493
vn 0 0.514496 0.857493
vn 0 0.514496 0.857493
vn 0 0.514496 0.857493
vn -0 -1 0
vn -0 -1 0
vn -0 -1 0
vn 0 -1 -0
vn 0 -1 -0
vn 0 -1 -0

usemtl material_0
f 1/1/1 2/2/2 3/3/3
f 1/1/1 3/3/3 4/4/4
f 5/5/5 6/6/6 7/7/7
f 5/5/5 7/7/7 8/8/8
f 9/9/9 10/10/10 11/11/11
f 9/9/9 11/11/11 12/12/12
f 13/13/13 14/14/14 15/15/15
f 16/16/16 17/17/17 18/18/18
f 19/19/19 20/20/20 21/21/21
f 19/19/19 21/21/21 22/22/22
f 23/23/23 24/24/24 25/25/25
f 23/23/23 25/25/25 26/26/26
f 27/27/27 28/28/28 29/29/29
f 27/27/27 29/29/29 30/30/30
f 31/31/31 32/32/32 33/33/33
f 34/34/34 35/35/35 36/36/36
f 37/37/37 38/38/38 39/39/39
f 40/40/40 41/41/41 42/42/42

