# Exported from MXVK MXModel
mtllib tree.mtl

v 0 0 0
v 0.1 0 0
v 0 0 0.1
v 0 0 0.1
v -0.1 0 0
v 0 0 0
v -0.1 0 0
v -0 0 -0.1
v 0 0 0
v -0 0 -0.1
v 0.1 0 0
v 0 0.3 0
v 0 0.3 0.1
v 0.1 0.3 0
v 0 0.3 0
v -0.1 0.3 0
v 0 0.3 0.1
v -0 0.3 -0.1
v -0.1 0.3 0
v 0 0.3 0
v 0.1 0.3 0
v -0 0.3 -0.1
v 0.1 0 0
v 0 0 0.1
v 0 0.3 0.1
v 0 0.3 0.1
v 0.1 0.3 0
v 0 0 0.1
v -0.1 0 0
v -0.1 0.3 0
v -0.1 0.3 0
v 0 0.3 0.1
v -0.1 0 0
v -0 0 -0.1
v -0 0.3 -0.1
v -0.1 0 0
v -0 0.3 -0.1
v -0.1 0.3 0
v -0 0 -0.1
v 0.1 0 0
v 0.1 0.3 0
v 0.1 0.3 0
v -0 0.3 -0.1
v 0 0.3 0
v 0.5 0.3 0
v 0 0.3 0.5
v 0 0.3 0.5
v -0.5 0.3 0
v 0 0.3 0
v -0.5 0.3 0
v -0 0.3 -0.5
v 0 0.3 0
v -0 0.3 -0.5
v 0.5 0.3 0
v 0 1.3 0
v 0 0.3 0.5
v 0.5 0.3 0
v 0 1.3 0
v -0.5 0.3 0
v 0 0.3 0.5
v 0 1.3 0
v -0 0.3 -0.5
v -0.5 0.3 0
v 0 1.3 0
v 0.5 0.3 0
v -0 0.3 -0.5

vt 0 0
vt 1 0
vt 0.5 1
vt 1 0
vt 0.5 1
vt 0 0
vt 1 0
vt 0.5 1
vt 0 0
vt 1 0
vt 0.5 1
vt 0 0
vt 1 0
vt 0.5 1
vt 0 0
vt 1 0
vt 0.5 1
vt 1 0
vt 0.5 1
vt 0 0
vt 1 0
vt 0.5 1
vt 0 0
vt 1 0
vt 0.5 1
vt 1 0
vt 0.5 1
vt 0 0
vt 1 0
vt 0.5 1
vt 1 0
vt 0.5 1
vt 0 0
vt 1 0
vt 0.5 1
vt 0 0
vt 1 0
vt 0.5 1
vt 0 0
vt 1 0
vt 0.5 1
vt 1 0
vt 0.5 1
vt 0 0
vt 1 0
vt 0.5 1
vt 1 0
vt 0.5 1
vt 0 0
vt 1 0
vt 0.5 1
vt 0 0
vt 1 0
vt 0.5 1
vt 0 0
vt 1 0
vt 0.5 1
vt 0 0
vt 1 0
vt 0.5 1
vt 0 0
vt 1 0
vt 0.5 1
vt 0 0
vt 1 0
vt 0.5 1

vn 0 -1 0
vn 0 -1 0
vn 0 -1 0
vn 0 -1 0
vn 0 -1 0
vn -0 -1 0
vn -0 -1 0
vn -0 -1 0
vn 0 -1 -0
vn 0 -1 -0
vn 0 -1 -0
vn 0 1 0
vn 0 1 0
vn 0 1 0
vn 0 1 -0
vn 0 1 -0
vn 0 1 -0
vn 0 1 0
vn 0 1 0
vn -0 1 0
vn -0 1 0
vn -0 1 0
vn -0.7071 0 -0.7071
vn -0.7071 0 -0.7071
vn -0.7071 0 -0.7071
vn -0.7071 0 -0.7071
vn -0.7071 0 -0.7071
vn 0.7071 0 -0.7071
vn 0.7071 0 -0.7071
vn 0.7071 0 -0.7071
vn 0.7071 0 -0.7071
vn 0.7071 0 -0.7071
vn 0.7071 0 0.7071
vn 0.7071 0 0.7071
vn 0.7071 0 0.7071
vn 0.7071 -0 0.7071
vn 0.7071 -0 0.7071
vn 0.7071 -0 0.7071
vn -0.7071 0 0.7071
vn -0.7071 0 0.7071
vn -0.7071 0 0.7071
vn -0.7071 0 0.7071
vn -0.7071 0 0.7071
vn 0 -1 0
vn 0 -1 0
vn 0 -1 0
vn 0 -1 0
vn 0 -1 0
vn -0 -1 0
vn -0 -1 0
vn -0 -1 0
vn 0 -1 -0
vn 0 -1 -0
vn 0 -1 -0
vn 0.6667 0.3333 0.6667
vn 0.6667 0.3333 0.6667
vn 0.6667 0.3333 0.6667
vn -0.6667 0.3333 0.6667
vn -0.6667 0.3333 0.6667
vn -0.6667 0.3333 0.6667
vn -0.6667 0.3333 -0.6667
vn -0.6667 0.3333 -0.6667
vn -0.6667 0.3333 -0.6667
vn 0.6667 0.3333 -0.6667
vn 0.6667 0.3333 -0.6667
vn 0.6667 0.3333 -0.6667

usemtl material_1
f 1/1/1 2/2/2 3/3/3
f 1/1/1 4/4/4 5/5/5
f 6/6/6 7/7/7 8/8/8
f 9/9/9 10/10/10 11/11/11
f 12/12/12 13/13/13 14/14/14
f 15/15/15 16/16/16 17/17/17
f 12/12/12 18/18/18 19/19/19
f 20/20/20 21/21/21 22/22/22
f 23/23/23 24/24/24 25/25/25
f 23/23/23 26/26/26 27/27/27
f 28/28/28 29/29/29 30/30/30
f 28/28/28 31/31/31 32/32/32
f 33/33/33 34/34/34 35/35/35
f 36/36/36 37/37/37 38/38/38
f 39/39/39 40/40/40 41/41/41
f 39/39/39 42/42/42 43/43/43

usemtl material_0
f 44/44/44 45/45/45 46/46/46
f 44/44/44 47/47/47 48/48/48
f 49/49/49 50/50/50 51/51/51
f 52/52/52 53/53/53 54/54/54
f 55/55/55 56/56/56 57/57/57
f 58/58/58 59/59/59 60/60/60
f 61/61/61 62/62/62 63/63/63
f 64/64/64 65/65/65 66/66/66

