# Exported from MXVK MXModel
mtllib tunnel.mtl

v 50 0 -100
v 50 0 100
v 49.0393 9.75452 -100
v 49.0393 9.75452 100
v 46.194 19.1342 -100
v 46.194 19.1342 100
v 41.5735 27.7785 -100
v 41.5735 27.7785 100
v 35.3553 35.3553 -100
v 35.3553 35.3553 100
v 27.7785 41.5735 -100
v 27.7785 41.5735 100
v 19.1342 46.194 -100
v 19.1342 46.194 100
v 9.75452 49.0393 -100
v 9.75452 49.0393 100
v 0 50 -100
v 0 50 100
v -9.75452 49.0393 -100
v -9.75452 49.0393 100
v -19.1342 46.194 -100
v -19.1342 46.194 100
v -27.7785 41.5735 -100
v -27.7785 41.5735 100
v -35.3553 35.3553 -100
v -35.3553 35.3553 100
v -41.5735 27.7785 -100
v -41.5735 27.7785 100
v -46.194 19.1342 -100
v -46.194 19.1342 100
v -49.0393 9.75452 -100
v -49.0393 9.75452 100
v -50 0 -100
v -50 0 100
v -49.0393 -9.75452 -100
v -49.0393 -9.75452 100
v -46.194 -19.1342 -100
v -46.194 -19.1342 100
v -41.5735 -27.7785 -100
v -41.5735 -27.7785 100
v -35.3553 -35.3553 -100
v -35.3553 -35.3553 100
v -27.7785 -41.5735 -100
v -27.7785 -41.5735 100
v -19.1342 -46.194 -100
v -19.1342 -46.194 100
v -9.75452 -49.0393 -100
v -9.75452 -49.0393 100
v -0 -50 -100
v -0 -50 100
v 9.75452 -49.0393 -100
v 9.75452 -49.0393 100
v 19.1342 -46.194 -100
v 19.1342 -46.194 100
v 27.7785 -41.5735 -100
v 27.7785 -41.5735 100
v 35.3553 -35.3553 -100
v 35.3553 -35.3553 100
v 41.5735 -27.7785 -100
v 41.5735 -27.7785 100
v 46.194 -19.1342 -100
v 46.194 -19.1342 100
v 49.0393 -9.75452 -100
v 49.0393 -9.75452 100
v 50 -0 -100
v 50 -0 100
v 49.0393 9.75452 100
v 50 0 100
v 0 0 150
v 46.194 19.1342 100
v 49.0393 9.75452 100
v 0 0 150
v 41.5735 27.7785 100
v 46.194 19.1342 100
v 0 0 150
v 35.3553 35.3553 100
v 41.5735 27.7785 100
v 0 0 150
v 27.7785 41.5735 100
v 35.3553 35.3553 100
v 0 0 150
v 19.1342 46.194 100
v 27.7785 41.5735 100
v 0 0 150
v 9.75452 49.0393 100
v 19.1342 46.194 100
v 0 0 150
v 0 50 100
v 9.75452 49.0393 100
v 0 0 150
v -9.75452 49.0393 100
v 0 50 100
v 0 0 150
v -19.1342 46.194 100
v -9.75452 49.0393 100
v 0 0 150
v -27.7785 41.5735 100
v -19.1342 46.194 100
v 0 0 150
v -35.3553 35.3553 100
v -27.7785 41.5735 100
v 0 0 150
v -41.5735 27.7785 100
v -35.3553 35.3553 100
v 0 0 150
v -46.194 19.1342 100
v -41.5735 27.7785 100
v 0 0 150
v -49.0393 9.75452 100
v -46.194 19.1342 100
v 0 0 150
v -50 0 100
v -49.0393 9.75452 100
v 0 0 150
v -49.0393 -9.75452 100
v -50 0 100
v 0 0 150
v -46.194 -19.1342 100
v -49.0393 -9.75452 100
v 0 0 150
v -41.5735 -27.7785 100
v -46.194 -19.1342 100
v 0 0 150
v -35.3553 -35.3553 100
v -41.5735 -27.7785 100
v 0 0 150
v -27.7785 -41.5735 100
v -35.3553 -35.3553 100
v 0 0 150
v -19.1342 -46.194 100
v -27.7785 -41.5735 100
v 0 0 150
v -9.75452 -49.0393 100
v -19.1342 -46.194 100
v 0 0 150
v -0 -50 100
v -9.75452 -49.0393 100
v 0 0 150
v 9.75452 -49.0393 100
v -0 -50 100
v 0 0 150
v 19.1342 -46.194 100
v 9.75452 -49.0393 100
v 0 0 150
v 27.7785 -41.5735 100
v 19.1342 -46.194 100
v 0 0 150
v 35.3553 -35.3553 100
v 27.7785 -41.5735 100
v 0 0 150
v 41.5735 -27.7785 100
v 35.3553 -35.3553 100
v 0 0 150
v 46.194 -19.1342 100
v 41.5735 -27.7785 100
v 0 0 150
v 49.0393 -9.75452 100
v 46.194 -19.1342 100
v 0 0 150
v 50 -0 100
v 49.0393 -9.75452 100
v 0 0 150
v 50 0 -100
v 49.0393 9.75452 -100
v 0 0 -150
v 49.0393 9.75452 -100
v 46.194 19.1342 -100
v 0 0 -150
v 46.194 19.1342 -100
v 41.5735 27.7785 -100
v 0 0 -150
v 41.5735 27.7785 -100
v 35.3553 35.3553 -100
v 0 0 -150
v 35.3553 35.3553 -100
v 27.7785 41.5735 -100
v 0 0 -150
v 27.7785 41.5735 -100
v 19.1342 46.194 -100
v 0 0 -150
v 19.1342 46.194 -100
v 9.75452 49.0393 -100
v 0 0 -150
v 9.75452 49.0393 -100
v 0 50 -100
v 0 0 -150
v 0 50 -100
v -9.75452 49.0393 -100
v 0 0 -150
v -9.75452 49.0393 -100
v -19.1342 46.194 -100
v 0 0 -150
v -19.1342 46.194 -100
v -27.7785 41.5735 -100
v 0 0 -150
v -27.7785 41.5735 -100
v -35.3553 35.3553 -100
v 0 0 -150
v -35.3553 35.3553 -100
v -41.5735 27.7785 -100
v 0 0 -150
v -41.5735 27.7785 -100
v -46.194 19.1342 -100
v 0 0 -150
v -46.194 19.1342 -100
v -49.0393 9.75452 -100
v 0 0 -150
v -49.0393 9.75452 -100
v -50 0 -100
v 0 0 -150
v -50 0 -100
v -49.0393 -9.75452 -100
v 0 0 -150
v -49.0393 -9.75452 -100
v -46.194 -19.1342 -100
v 0 0 -150
v -46.194 -19.1342 -100
v -41.5735 -27.7785 -100
v 0 0 -150
v -41.5735 -27.7785 -100
v -35.3553 -35.3553 -100
v 0 0 -150
v -35.3553 -35.3553 -100
v -27.7785 -41.5735 -100
v 0 0 -150
v -27.7785 -41.5735 -100
v -19.1342 -46.194 -100
v 0 0 -150
v -19.1342 -46.194 -100
v -9.75452 -49.0393 -100
v 0 0 -150
v -9.75452 -49.0393 -100
v -0 -50 -100
v 0 0 -150
v -0 -50 -100
v 9.75452 -49.0393 -100
v 0 0 -150
v 9.75452 -49.0393 -100
v 19.1342 -46.194 -100
v 0 0 -150
v 19.1342 -46.194 -100
v 27.7785 -41.5735 -100
v 0 0 -150
v 27.7785 -41.5735 -100
v 35.3553 -35.3553 -100
v 0 0 -150
v 35.3553 -35.3553 -100
v 41.5735 -27.7785 -100
v 0 0 -150
v 41.5735 -27.7785 -100
v 46.194 -19.1342 -100
v 0 0 -150
v 46.194 -19.1342 -100
v 49.0393 -9.75452 -100
v 0 0 -150
v 49.0393 -9.75452 -100
v 50 -0 -100
v 0 0 -150

vt 0 0
vt 0 5
vt 0.03125 0
vt 0.03125 5
vt 0.0625 0
vt 0.0625 5
vt 0.09375 0
vt 0.09375 5
vt 0.125 0
vt 0.125 5
vt 0.15625 0
vt 0.15625 5
vt 0.1875 0
vt 0.1875 5
vt 0.21875 0
vt 0.21875 5
vt 0.25 0
vt 0.25 5
vt 0.28125 0
vt 0.28125 5
vt 0.3125 0
vt 0.3125 5
vt 0.34375 0
vt 0.34375 5
vt 0.375 0
vt 0.375 5
vt 0.40625 0
vt 0.40625 5
vt 0.4375 0
vt 0.4375 5
vt 0.46875 0
vt 0.46875 5
vt 0.5 0
vt 0.5 5
vt 0.53125 0
vt 0.53125 5
vt 0.5625 0
vt 0.5625 5
vt 0.59375 0
vt 0.59375 5
vt 0.625 0
vt 0.625 5
vt 0.65625 0
vt 0.65625 5
vt 0.6875 0
vt 0.6875 5
vt 0.71875 0
vt 0.71875 5
vt 0.75 0
vt 0.75 5
vt 0.78125 0
vt 0.78125 5
vt 0.8125 0
vt 0.8125 5
vt 0.84375 0
vt 0.84375 5
vt 0.875 0
vt 0.875 5
vt 0.90625 0
vt 0.90625 5
vt 0.9375 0
vt 0.9375 5
vt 0.96875 0
vt 0.96875 5
vt 1 0
vt 1 5
vt 0.03125 0
vt 0 0
vt 0.015625 1
vt 0.0625 0
vt 0.03125 0
vt 0.046875 1
vt 0.09375 0
vt 0.0625 0
vt 0.078125 1
vt 0.125 0
vt 0.09375 0
vt 0.109375 1
vt 0.15625 0
vt 0.125 0
vt 0.140625 1
vt 0.1875 0
vt 0.15625 0
vt 0.171875 1
vt 0.21875 0
vt 0.1875 0
vt 0.203125 1
vt 0.25 0
vt 0.21875 0
vt 0.234375 1
vt 0.28125 0
vt 0.25 0
vt 0.265625 1
vt 0.3125 0
vt 0.28125 0
vt 0.296875 1
vt 0.34375 0
vt 0.3125 0
vt 0.328125 1
vt 0.375 0
vt 0.34375 0
vt 0.359375 1
vt 0.40625 0
vt 0.375 0
vt 0.390625 1
vt 0.4375 0
vt 0.40625 0
vt 0.421875 1
vt 0.46875 0
vt 0.4375 0
vt 0.453125 1
vt 0.5 0
vt 0.46875 0
vt 0.484375 1
vt 0.53125 0
vt 0.5 0
vt 0.515625 1
vt 0.5625 0
vt 0.53125 0
vt 0.546875 1
vt 0.59375 0
vt 0.5625 0
vt 0.578125 1
vt 0.625 0
vt 0.59375 0
vt 0.609375 1
vt 0.65625 0
vt 0.625 0
vt 0.640625 1
vt 0.6875 0
vt 0.65625 0
vt 0.671875 1
vt 0.71875 0
vt 0.6875 0
vt 0.703125 1
vt 0.75 0
vt 0.71875 0
vt 0.734375 1
vt 0.78125 0
vt 0.75 0
vt 0.765625 1
vt 0.8125 0
vt 0.78125 0
vt 0.796875 1
vt 0.84375 0
vt 0.8125 0
vt 0.828125 1
vt 0.875 0
vt 0.84375 0
vt 0.859375 1
vt 0.90625 0
vt 0.875 0
vt 0.890625 1
vt 0.9375 0
vt 0.90625 0
vt 0.921875 1
vt 0.96875 0
vt 0.9375 0
vt 0.953125 1
vt 1 0
vt 0.96875 0
vt 0.984375 1
vt 0 0
vt 0.03125 0
vt 0.015625 1
vt 0.03125 0
vt 0.0625 0
vt 0.046875 1
vt 0.0625 0
vt 0.09375 0
vt 0.078125 1
vt 0.09375 0
vt 0.125 0
vt 0.109375 1
vt 0.125 0
vt 0.15625 0
vt 0.140625 1
vt 0.15625 0
vt 0.1875 0
vt 0.171875 1
vt 0.1875 0
vt 0.21875 0
vt 0.203125 1
vt 0.21875 0
vt 0.25 0
vt 0.234375 1
vt 0.25 0
vt 0.28125 0
vt 0.265625 1
vt 0.28125 0
vt 0.3125 0
vt 0.296875 1
vt 0.3125 0
vt 0.34375 0
vt 0.328125 1
vt 0.34375 0
vt 0.375 0
vt 0.359375 1
vt 0.375 0
vt 0.40625 0
vt 0.390625 1
vt 0.40625 0
vt 0.4375 0
vt 0.421875 1
vt 0.4375 0
vt 0.46875 0
vt 0.453125 1
vt 0.46875 0
vt 0.5 0
vt 0.484375 1
vt 0.5 0
vt 0.53125 0
vt 0.515625 1
vt 0.53125 0
vt 0.5625 0
vt 0.546875 1
vt 0.5625 0
vt 0.59375 0
vt 0.578125 1
vt 0.59375 0
vt 0.625 0
vt 0.609375 1
vt 0.625 0
vt 0.65625 0
vt 0.640625 1
vt 0.65625 0
vt 0.6875 0
vt 0.671875 1
vt 0.6875 0
vt 0.71875 0
vt 0.703125 1
vt 0.71875 0
vt 0.75 0
vt 0.734375 1
vt 0.75 0
vt 0.78125 0
vt 0.765625 1
vt 0.78125 0
vt 0.8125 0
vt 0.796875 1
vt 0.8125 0
vt 0.84375 0
vt 0.828125 1
vt 0.84375 0
vt 0.875 0
vt 0.859375 1
vt 0.875 0
vt 0.90625 0
vt 0.890625 1
vt 0.90625 0
vt 0.9375 0
vt 0.921875 1
vt 0.9375 0
vt 0.96875 0
vt 0.953125 1
vt 0.96875 0
vt 1 0
vt 0.984375 1

vn -1 -0 0
vn -1 -0 0
vn -0.980785 -0.19509 0
vn -0.980785 -0.19509 0
vn -0.92388 -0.382683 0
vn -0.92388 -0.382683 0
vn -0.83147 -0.55557 0
vn -0.83147 -0.55557 0
vn -0.707107 -0.707107 0
vn -0.707107 -0.707107 0
vn -0.55557 -0.83147 0
vn -0.55557 -0.83147 0
vn -0.382683 -0.92388 0
vn -0.382683 -0.92388 0
vn -0.19509 -0.980785 0
vn -0.19509 -0.980785 0
vn -0 -1 0
vn -0 -1 0
vn 0.19509 -0.980785 0
vn 0.19509 -0.980785 0
vn 0.382683 -0.92388 0
vn 0.382683 -0.92388 0
vn 0.55557 -0.83147 0
vn 0.55557 -0.83147 0
vn 0.707107 -0.707107 0
vn 0.707107 -0.707107 0
vn 0.83147 -0.55557 0
vn 0.83147 -0.55557 0
vn 0.92388 -0.382683 0
vn 0.92388 -0.382683 0
vn 0.980785 -0.19509 0
vn 0.980785 -0.19509 0
vn 1 -0 0
vn 1 -0 0
vn 0.980785 0.19509 0
vn 0.980785 0.19509 0
vn 0.92388 0.382683 0
vn 0.92388 0.382683 0
vn 0.83147 0.55557 0
vn 0.83147 0.55557 0
vn 0.707107 0.707107 0
vn 0.707107 0.707107 0
vn 0.55557 0.83147 0
vn 0.55557 0.83147 0
vn 0.382683 0.92388 0
vn 0.382683 0.92388 0
vn 0.19509 0.980785 0
vn 0.19509 0.980785 0
vn 0 1 0
vn 0 1 0
vn -0.19509 0.980785 0
vn -0.19509 0.980785 0
vn -0.382683 0.92388 0
vn -0.382683 0.92388 0
vn -0.55557 0.83147 0
vn -0.55557 0.83147 0
vn -0.707107 0.707107 0
vn -0.707107 0.707107 0
vn -0.83147 0.55557 0
vn -0.83147 0.55557 0
vn -0.92388 0.382683 0
vn -0.92388 0.382683 0
vn -0.980785 0.19509 0
vn -0.980785 0.19509 0
vn -1 0 0
vn -1 0 0
vn -0.705398 -0.069476 -0.705398
vn -0.705398 -0.069476 -0.705398
vn -0.705398 -0.069476 -0.705398
vn -0.67829 -0.205757 -0.705398
vn -0.67829 -0.205757 -0.705398
vn -0.67829 -0.205757 -0.705398
vn -0.625116 -0.334131 -0.705398
vn -0.625116 -0.334131 -0.705398
vn -0.625116 -0.334131 -0.705398
vn -0.547919 -0.449665 -0.705398
vn -0.547919 -0.449665 -0.705398
vn -0.547919 -0.449665 -0.705398
vn -0.449665 -0.547919 -0.705398
vn -0.449665 -0.547919 -0.705398
vn -0.449665 -0.547919 -0.705398
vn -0.334131 -0.625116 -0.705398
vn -0.334131 -0.625116 -0.705398
vn -0.334131 -0.625116 -0.705398
vn -0.205757 -0.67829 -0.705398
vn -0.205757 -0.67829 -0.705398
vn -0.205757 -0.67829 -0.705398
vn -0.069476 -0.705398 -0.705398
vn -0.069476 -0.705398 -0.705398
vn -0.069476 -0.705398 -0.705398
vn 0.069476 -0.705398 -0.705398
vn 0.069476 -0.705398 -0.705398
vn 0.069476 -0.705398 -0.705398
vn 0.205757 -0.67829 -0.705398
vn 0.205757 -0.67829 -0.705398
vn 0.205757 -0.67829 -0.705398
vn 0.334131 -0.625116 -0.705398
vn 0.334131 -0.625116 -0.705398
vn 0.334131 -0.625116 -0.705398
vn 0.449665 -0.547919 -0.705398
vn 0.449665 -0.547919 -0.705398
vn 0.449665 -0.547919 -0.705398
vn 0.547919 -0.449665 -0.705398
vn 0.547919 -0.449665 -0.705398
vn 0.547919 -0.449665 -0.705398
vn 0.625116 -0.334131 -0.705398
vn 0.625116 -0.334131 -0.705398
vn 0.625116 -0.334131 -0.705398
vn 0.67829 -0.205757 -0.705398
vn 0.67829 -0.205757 -0.705398
vn 0.67829 -0.205757 -0.705398
vn 0.705398 -0.069476 -0.705398
vn 0.705398 -0.069476 -0.705398
vn 0.705398 -0.069476 -0.705398
vn 0.705398 0.069476 -0.705398
vn 0.705398 0.069476 -0.705398
vn 0.705398 0.069476 -0.705398
vn 0.67829 0.205757 -0.705398
vn 0.67829 0.205757 -0.705398
vn 0.67829 0.205757 -0.705398
vn 0.625116 0.334131 -0.705398
vn 0.625116 0.334131 -0.705398
vn 0.625116 0.334131 -0.705398
vn 0.547919 0.449665 -0.705398
vn 0.547919 0.449665 -0.705398
vn 0.547919 0.449665 -0.705398
vn 0.449665 0.547919 -0.705398
vn 0.449665 0.547919 -0.705398
vn 0.449665 0.547919 -0.705398
vn 0.334131 0.625116 -0.705398
vn 0.334131 0.625116 -0.705398
vn 0.334131 0.625116 -0.705398
vn 0.205757 0.67829 -0.705398
vn 0.205757 0.67829 -0.705398
vn 0.205757 0.67829 -0.705398
vn 0.069476 0.705398 -0.705398
vn 0.069476 0.705398 -0.705398
vn 0.069476 0.705398 -0.705398
vn -0.069476 0.705398 -0.705398
vn -0.069476 0.705398 -0.705398
vn -0.069476 0.705398 -0.705398
vn -0.205757 0.67829 -0.705398
vn -0.205757 0.67829 -0.705398
vn -0.205757 0.67829 -0.705398
vn -0.334131 0.625116 -0.705398
vn -0.334131 0.625116 -0.705398
vn -0.334131 0.625116 -0.705398
vn -0.449665 0.547919 -0.705398
vn -0.449665 0.547919 -0.705398
vn -0.449665 0.547919 -0.705398
vn -0.547919 0.449665 -0.705398
vn -0.547919 0.449665 -0.705398
vn -0.547919 0.449665 -0.705398
vn -0.625116 0.334131 -0.705398
vn -0.625116 0.334131 -0.705398
vn -0.625116 0.334131 -0.705398
vn -0.67829 0.205757 -0.705398
vn -0.67829 0.205757 -0.705398
vn -0.67829 0.205757 -0.705398
vn -0.705398 0.069476 -0.705398
vn -0.705398 0.069476 -0.705398
vn -0.705398 0.069476 -0.705398
vn -0.705398 -0.069476 0.705398
vn -0.705398 -0.069476 0.705398
vn -0.705398 -0.069476 0.705398
vn -0.67829 -0.205757 0.705398
vn -0.67829 -0.205757 0.705398
vn -0.67829 -0.205757 0.705398
vn -0.625116 -0.334131 0.705398
vn -0.625116 -0.334131 0.705398
vn -0.625116 -0.334131 0.705398
vn -0.547919 -0.449665 0.705398
vn -0.547919 -0.449665 0.705398
vn -0.547919 -0.449665 0.705398
vn -0.449665 -0.547919 0.705398
vn -0.449665 -0.547919 0.705398
vn -0.449665 -0.547919 0.705398
vn -0.334131 -0.625116 0.705398
vn -0.334131 -0.625116 0.705398
vn -0.334131 -0.625116 0.705398
vn -0.205757 -0.67829 0.705398
vn -0.205757 -0.67829 0.705398
vn -0.205757 -0.67829 0.705398
vn -0.069476 -0.705398 0.705398
vn -0.069476 -0.705398 0.705398
vn -0.069476 -0.705398 0.705398
vn 0.069476 -0.705398 0.705398
vn 0.069476 -0.705398 0.705398
vn 0.069476 -0.705398 0.705398
vn 0.205757 -0.67829 0.705398
vn 0.205757 -0.67829 0.705398
vn 0.205757 -0.67829 0.705398
vn 0.334131 -0.625116 0.705398
vn 0.334131 -0.625116 0.705398
vn 0.334131 -0.625116 0.705398
vn 0.449665 -0.547919 0.705398
vn 0.449665 -0.547919 0.705398
vn 0.449665 -0.547919 0.705398
vn 0.547919 -0.449665 0.705398
vn 0.547919 -0.449665 0.705398
vn 0.547919 -0.449665 0.705398
vn 0.625116 -0.334131 0.705398
vn 0.625116 -0.334131 0.705398
vn 0.625116 -0.334131 0.705398
vn 0.67829 -0.205757 0.705398
vn 0.67829 -0.205757 0.705398
vn 0.67829 -0.205757 0.705398
vn 0.705398 -0.069476 0.705398
vn 0.705398 -0.069476 0.705398
vn 0.705398 -0.069476 0.705398
vn 0.705398 0.069476 0.705398
vn 0.705398 0.069476 0.705398
vn 0.705398 0.069476 0.705398
vn 0.67829 0.205757 0.705398
vn 0.67829 0.205757 0.705398
vn 0.67829 0.205757 0.705398
vn 0.625116 0.334131 0.705398
vn 0.625116 0.334131 0.705398
vn 0.625116 0.334131 0.705398
vn 0.547919 0.449665 0.705398
vn 0.547919 0.449665 0.705398
vn 0.547919 0.449665 0.705398
vn 0.449665 0.547919 0.705398
vn 0.449665 0.547919 0.705398
vn 0.449665 0.547919 0.705398
vn 0.334131 0.625116 0.705398
vn 0.334131 0.625116 0.705398
vn 0.334131 0.625116 0.705398
vn 0.205757 0.67829 0.705398
vn 0.205757 0.67829 0.705398
vn 0.205757 0.67829 0.705398
vn 0.069476 0.705398 0.705398
vn 0.069476 0.705398 0.705398
vn 0.069476 0.705398 0.705398
vn -0.069476 0.705398 0.705398
vn -0.069476 0.705398 0.705398
vn -0.069476 0.705398 0.705398
vn -0.205757 0.67829 0.705398
vn -0.205757 0.67829 0.705398
vn -0.205757 0.67829 0.705398
vn -0.334131 0.625116 0.705398
vn -0.334131 0.625116 0.705398
vn -0.334131 0.625116 0.705398
vn -0.449665 0.547919 0.705398
vn -0.449665 0.547919 0.705398
vn -0.449665 0.547919 0.705398
vn -0.547919 0.449665 0.705398
vn -0.547919 0.449665 0.705398
vn -0.547919 0.449665 0.705398
vn -0.625116 0.334131 0.705398
vn -0.625116 0.334131 0.705398
vn -0.625116 0.334131 0.705398
vn -0.67829 0.205757 0.705398
vn -0.67829 0.205757 0.705398
vn -0.67829 0.205757 0.705398
vn -0.705398 0.069476 0.705398
vn -0.705398 0.069476 0.705398
vn -0.705398 0.069476 0.705398

usemtl material_0
f 1/1/1 2/2/2 3/3/3
f 3/3/3 2/2/2 4/4/4
f 3/3/3 4/4/4 5/5/5
f 5/5/5 4/4/4 6/6/6
f 5/5/5 6/6/6 7/7/7
f 7/7/7 6/6/6 8/8/8
f 7/7/7 8/8/8 9/9/9
f 9/9/9 8/8/8 10/10/10
f 9/9/9 10/10/10 11/11/11
f 11/11/11 10/10/10 12/12/12
f 11/11/11 12/12/12 13/13/13
f 13/13/13 12/12/12 14/14/14
f 13/13/13 14/14/14 15/15/15
f 15/15/15 14/14/14 16/16/16
f 15/15/15 16/16/16 17/17/17
f 17/17/17 16/16/16 18/18/18
f 17/17/17 18/18/18 19/19/19
f 19/19/19 18/18/18 20/20/20
f 19/19/19 20/20/20 21/21/21
f 21/21/21 20/20/20 22/22/22
f 21/21/21 22/22/22 23/23/23
f 23/23/23 22/22/22 24/24/24
f 23/23/23 24/24/24 25/25/25
f 25/25/25 24/24/24 26/26/26
f 25/25/25 26/26/26 27/27/27
f 27/27/27 26/26/26 28/28/28
f 27/27/27 28/28/28 29/29/29
f 29/29/29 28/28/28 30/30/30
f 29/29/29 30/30/30 31/31/31
f 31/31/31 30/30/30 32/32/32
f 31/31/31 32/32/32 33/33/33
f 33/33/33 32/32/32 34/34/34
f 33/33/33 34/34/34 35/35/35
f 35/35/35 34/34/34 36/36/36
f 35/35/35 36/36/36 37/37/37
f 37/37/37 36/36/36 38/38/38
f 37/37/37 38/38/38 39/39/39
f 39/39/39 38/38/38 40/40/40
f 39/39/39 40/40/40 41/41/41
f 41/41/41 40/40/40 42/42/42
f 41/41/41 42/42/42 43/43/43
f 43/43/43 42/42/42 44/44/44
f 43/43/43 44/44/44 45/45/45
f 45/45/45 44/44/44 46/46/46
f 45/45/45 46/46/46 47/47/47
f 47/47/47 46/46/46 48/48/48
f 47/47/47 48/48/48 49/49/49
f 49/49/49 48/48/48 50/50/50
f 49/49/49 50/50/50 51/51/51
f 51/51/51 50/50/50 52/52/52
f 51/51/51 52/52/52 53/53/53
f 53/53/53 52/52/52 54/54/54
f 53/53/53 54/54/54 55/55/55
f 55/55/55 54/54/54 56/56/56
f 55/55/55 56/56/56 57/57/57
f 57/57/57 56/56/56 58/58/58
f 57/57/57 58/58/58 59/59/59
f 59/59/59 58/58/58 60/60/60
f 59/59/59 60/60/60 61/61/61
f 61/61/61 60/60/60 62/62/62
f 61/61/61 62/62/62 63/63/63
f 63/63/63 62/62/62 64/64/64
f 63/63/63 64/64/64 65/65/65
f 65/65/65 64/64/64 66/66/66
f 67/67/67 68/68/68 69/69/69
f 70/70/70 71/71/71 72/72/72
f 73/73/73 74/74/74 75/75/75
f 76/76/76 77/77/77 78/78/78
f 79/79/79 80/80/80 81/81/81
f 82/82/82 83/83/83 84/84/84
f 85/85/85 86/86/86 87/87/87
f 88/88/88 89/89/89 90/90/90
f 91/91/91 92/92/92 93/93/93
f 94/94/94 95/95/95 96/96/96
f 97/97/97 98/98/98 99/99/99
f 100/100/100 101/101/101 102/102/102
f 103/103/103 104/104/104 105/105/105
f 106/106/106 107/107/107 108/108/108
f 109/109/109 110/110/110 111/111/111
f 112/112/112 113/113/113 114/114/114
f 115/115/115 116/116/116 117/117/117
f 118/118/118 119/119/119 120/120/120
f 121/121/121 122/122/122 123/123/123
f 124/124/124 125/125/125 126/126/126
f 127/127/127 128/128/128 129/129/129
f 130/130/130 131/131/131 132/132/132
f 133/133/133 134/134/134 135/135/135
f 136/136/136 137/137/137 138/138/138
f 139/139/139 140/140/140 141/141/141
f 142/142/142 143/143/143 144/144/144
f 145/145/145 146/146/146 147/147/147
f 148/148/148 149/149/149 150/150/150
f 151/151/151 152/152/152 153/153/153
f 154/154/154 155/155/155 156/156/156
f 157/157/157 158/158/158 159/159/159
f 160/160/160 161/161/161 162/162/162
f 163/163/163 164/164/164 165/165/165
f 166/166/166 167/167/167 168/168/168
f 169/169/169 170/170/170 171/171/171
f 172/172/172 173/173/173 174/174/174
f 175/175/175 176/176/176 177/177/177
f 178/178/178 179/179/179 180/180/180
f 181/181/181 182/182/182 183/183/183
f 184/184/184 185/185/185 186/186/186
f 187/187/187 188/188/188 189/189/189
f 190/190/190 191/191/191 192/192/192
f 193/193/193 194/194/194 195/195/195
f 196/196/196 197/197/197 198/198/198
f 199/199/199 200/200/200 201/201/201
f 202/202/202 203/203/203 204/204/204
f 205/205/205 206/206/206 207/207/207
f 208/208/208 209/209/209 210/210/210
f 211/211/211 212/212/212 213/213/213
f 214/214/214 215/215/215 216/216/216
f 217/217/217 218/218/218 219/219/219
f 220/220/220 221/221/221 222/222/222
f 223/223/223 224/224/224 225/225/225
f 226/226/226 227/227/227 228/228/228
f 229/229/229 230/230/230 231/231/231
f 232/232/232 233/233/233 234/234/234
f 235/235/235 236/236/236 237/237/237
f 238/238/238 239/239/239 240/240/240
f 241/241/241 242/242/242 243/243/243
f 244/244/244 245/245/245 246/246/246
f 247/247/247 248/248/248 249/249/249
f 250/250/250 251/251/251 252/252/252
f 253/253/253 254/254/254 255/255/255
f 256/256/256 257/257/257 258/258/258

