# Blender 5.1.2
# www.blender.org
mtllib blaster.mtl
o Blaster
v -0.400000 -0.000000 -0.100000
v 0.400000 -0.000000 -0.100000
v 0.400000 0.000000 0.100000
v -0.400000 0.000000 0.100000
v -0.400000 0.180000 -0.100000
v 0.400000 0.180000 -0.100000
v 0.400000 0.180000 0.100000
v -0.400000 0.180000 0.100000
v -0.280000 0.180000 -0.075000
v 0.320000 0.180000 -0.075000
v 0.320000 0.180000 0.075000
v -0.280000 0.180000 0.075000
v -0.240000 0.280000 -0.065000
v 0.280000 0.280000 -0.065000
v 0.280000 0.280000 0.065000
v -0.240000 0.280000 0.065000
v 0.950000 0.135000 -0.000000
v 0.950000 0.129000 0.022500
v 0.950000 0.112500 0.039000
v 0.950000 0.090000 0.045000
v 0.950000 0.067500 0.039000
v 0.950000 0.051000 0.022500
v 0.950000 0.045000 -0.000000
v 0.950000 0.051000 -0.022500
v 0.950000 0.067500 -0.039000
v 0.950000 0.090000 -0.045000
v 0.950000 0.112500 -0.039000
v 0.950000 0.129000 -0.022500
v 0.400000 0.135000 -0.000000
v 0.400000 0.129000 0.022500
v 0.400000 0.112500 0.039000
v 0.400000 0.090000 0.045000
v 0.400000 0.067500 0.039000
v 0.400000 0.051000 0.022500
v 0.400000 0.045000 -0.000000
v 0.400000 0.051000 -0.022500
v 0.400000 0.067500 -0.039000
v 0.400000 0.090000 -0.045000
v 0.400000 0.112500 -0.039000
v 0.400000 0.129000 -0.022500
v -0.160000 -0.340000 -0.050000
v 0.020000 -0.340000 -0.050000
v 0.020000 -0.340000 0.050000
v -0.160000 -0.340000 0.050000
v -0.100000 -0.000000 -0.050000
v 0.080000 -0.000000 -0.050000
v 0.080000 0.000000 0.050000
v -0.100000 0.000000 0.050000
v -0.340000 0.180000 -0.030000
v -0.280000 0.180000 -0.030000
v -0.280000 0.180000 0.030000
v -0.340000 0.180000 0.030000
v -0.340000 0.235000 -0.025000
v -0.290000 0.235000 -0.025000
v -0.290000 0.235000 0.025000
v -0.340000 0.235000 0.025000
vn -0.5774 -0.5774 -0.5774
vn 0.5774 -0.5774 -0.5774
vn 0.5774 -0.5774 0.5774
vn -0.5774 -0.5774 0.5774
vn -0.5774 0.5774 -0.5774
vn 0.5774 0.5774 -0.5774
vn 0.5774 0.5774 0.5774
vn -0.5774 0.5774 0.5774
vn -0.6773 -0.4457 -0.5853
vn 0.6773 -0.4457 -0.5853
vn 0.6773 -0.4457 0.5853
vn -0.6773 -0.4457 0.5853
vn -0.4491 0.6929 -0.5641
vn 0.4491 0.6929 -0.5641
vn 0.4491 0.6929 0.5641
vn -0.4491 0.6929 0.5641
vn 0.6534 0.7570 -0.0000
vn 0.6531 0.6560 0.3782
vn 0.6531 0.3782 0.6560
vn 0.6534 -0.0000 0.7570
vn 0.6531 -0.3782 0.6560
vn 0.6531 -0.6560 0.3782
vn 0.6534 -0.7570 -0.0000
vn 0.6531 -0.6560 -0.3782
vn 0.6531 -0.3782 -0.6560
vn 0.6534 -0.0000 -0.7570
vn 0.6531 0.3782 -0.6560
vn 0.6531 0.6560 -0.3782
vn -0.6534 0.7570 -0.0000
vn -0.6531 0.6560 0.3782
vn -0.6531 0.3782 0.6560
vn -0.6534 -0.0000 0.7570
vn -0.6531 -0.3782 0.6560
vn -0.6531 -0.6560 0.3782
vn -0.6534 -0.7570 -0.0000
vn -0.6531 -0.6560 -0.3782
vn -0.6531 -0.3782 -0.6560
vn -0.6534 -0.0000 -0.7570
vn -0.6531 0.3782 -0.6560
vn -0.6531 0.6560 -0.3782
vn -0.6301 -0.5287 -0.5687
vn 0.5203 -0.6202 -0.5871
vn 0.5203 -0.6202 0.5871
vn -0.6301 -0.5287 0.5687
vn -0.5203 0.6202 -0.5871
vn 0.6301 0.5287 -0.5687
vn 0.6301 0.5287 0.5687
vn -0.5203 0.6202 0.5871
vn -0.5727 -0.5528 -0.6053
vn 0.6251 -0.5059 -0.5944
vn 0.6251 -0.5059 0.5944
vn -0.5727 -0.5528 0.6053
vn -0.5823 0.6003 -0.5482
vn 0.5214 0.6469 -0.5564
vn 0.5214 0.6469 0.5564
vn -0.5823 0.6003 0.5482
vt 0.151332 0.000000
vt 0.151332 0.605328
vt -0.000000 0.605328
vt 0.000000 0.000000
vt 0.302664 0.605328
vt 0.151332 0.605327
vt 0.151332 -0.000000
vt 0.302664 0.000000
vt 0.438792 0.605328
vt 0.302664 0.605328
vt 0.302664 0.000000
vt 0.438793 0.000000
vt 0.135798 0.756659
vt 0.000000 0.756659
vt 0.000000 0.605328
vt 0.135798 0.605328
vt 0.438793 0.000000
vt 0.574921 0.000000
vt 0.574921 0.605328
vt 0.438793 0.605328
vt 0.151332 0.605328
vt 0.286700 0.605328
vt 0.286700 0.756659
vt 0.151332 0.756659
vt 0.688420 0.000000
vt 0.688420 0.453996
vt 0.574921 0.453996
vt 0.574921 0.000000
vt 0.786786 0.393463
vt 0.688420 0.393463
vt 0.688420 0.000000
vt 0.786786 0.000000
vt 0.862656 0.453996
vt 0.786786 0.423729
vt 0.786786 0.030266
vt 0.862656 -0.000000
vt 0.806893 0.852285
vt 0.729129 0.844718
vt 0.729129 0.746352
vt 0.806893 0.738786
vt 0.843170 0.453996
vt 0.919039 0.484262
vt 0.919039 0.877725
vt 0.843170 0.907991
vt 0.650587 0.738786
vt 0.650587 0.852285
vt 0.982975 0.870158
vt 0.965950 0.870158
vt 0.965950 0.453996
vt 0.982975 0.453996
vt 0.965950 0.870158
vt 0.953071 0.870158
vt 0.953071 0.453996
vt 0.965950 0.453996
vt 0.935910 0.870158
vt 0.935910 0.453996
vt 0.919039 0.870158
vt 0.919039 0.453996
vt 0.862656 -0.000000
vt 0.875141 -0.000000
vt 0.875141 0.416163
vt 0.862656 0.416163
vt 0.892165 -0.000000
vt 0.892165 0.416163
vt 0.909190 -0.000000
vt 0.909190 0.416163
vt 0.921675 -0.000000
vt 0.921675 0.416163
vt 0.968586 0.416163
vt 0.951716 0.416163
vt 0.951716 -0.000000
vt 0.968586 -0.000000
vt 0.934554 0.416163
vt 0.934554 -0.000000
vt 0.921675 0.416163
vt 0.921675 -0.000000
vt 1.000000 0.870158
vt 1.000000 0.453996
vt 0.438032 0.765709
vt 0.446781 0.750419
vt 0.462019 0.741552
vt 0.479591 0.741526
vt 0.494829 0.750276
vt 0.503651 0.765540
vt 0.503651 0.783156
vt 0.494902 0.798446
vt 0.479664 0.807313
vt 0.462092 0.807339
vt 0.446854 0.798590
vt 0.438032 0.783326
vt 0.569076 0.783382
vt 0.560280 0.798629
vt 0.545087 0.807353
vt 0.527567 0.807299
vt 0.512374 0.798410
vt 0.503651 0.783110
vt 0.503651 0.765497
vt 0.512447 0.750250
vt 0.527640 0.741526
vt 0.545159 0.741580
vt 0.560353 0.750469
vt 0.569076 0.765769
vt 0.513698 0.605327
vt 0.513698 0.741526
vt 0.438032 0.741526
vt 0.438032 0.605327
vt 0.650587 0.874985
vt 0.574921 0.874985
vt 0.574921 0.738786
vt 0.650587 0.738786
vt 0.574921 0.477677
vt 0.709045 0.453996
vt 0.709045 0.715105
vt 0.438032 0.605328
vt 0.438032 0.858355
vt 0.362366 0.858355
vt 0.362366 0.605328
vt 0.843170 0.477677
vt 0.843170 0.738786
vt 0.286700 0.866029
vt 0.286700 0.605327
vt 0.362366 0.605327
vt 0.362366 0.866029
vt 0.559097 0.605328
vt 0.559097 0.650727
vt 0.513698 0.650727
vt 0.513698 0.605328
vt 0.037833 0.794492
vt 0.000000 0.794492
vt 0.000000 0.756659
vt 0.037833 0.756659
vt 0.555414 0.741526
vt 0.513698 0.741526
vt 0.513698 0.703693
vt 0.555414 0.696127
vt 0.555772 0.696127
vt 0.513698 0.692343
vt 0.513698 0.654510
vt 0.555772 0.650727
vt 0.730136 0.401029
vt 0.730136 0.438862
vt 0.688420 0.438862
vt 0.730136 0.393463
vt 0.771499 0.397246
vt 0.771499 0.435079
vt 0.730136 0.438862
s 1
usemtl BlasterMetal
f 1/1/1 2/2/2 3/3/3 4/4/4
f 5/5/5 8/6/8 7/7/7 6/8/6
f 1/9/1 5/10/5 6/11/6 2/12/2
f 2/13/2 6/14/6 7/15/7 3/16/3
f 3/17/3 7/18/7 8/19/8 4/20/4
f 4/21/4 8/22/8 5/23/5 1/24/1
f 9/25/9 10/26/10 11/27/11 12/28/12
f 13/29/13 16/30/16 15/31/15 14/32/14
f 9/33/9 13/34/13 14/35/14 10/36/10
f 10/37/10 14/38/14 15/39/15 11/40/11
f 11/41/11 15/42/15 16/43/16 12/44/12
f 12/45/12 16/39/16 13/38/13 9/46/9
f 29/47/29 30/48/30 18/49/18 17/50/17
f 30/51/30 31/52/31 19/53/19 18/54/18
f 31/52/31 32/55/32 20/56/20 19/53/19
f 32/55/32 33/57/33 21/58/21 20/56/20
f 33/59/33 34/60/34 22/61/22 21/62/21
f 34/60/34 35/63/35 23/64/23 22/61/22
f 35/63/35 36/65/36 24/66/24 23/64/23
f 36/65/36 37/67/37 25/68/25 24/66/24
f 37/69/37 38/70/38 26/71/26 25/72/25
f 38/70/38 39/73/39 27/74/27 26/71/26
f 39/73/39 40/75/40 28/76/28 27/74/27
f 40/77/40 29/47/29 17/50/17 28/78/28
f 17/79/17 18/80/18 19/81/19 20/82/20 21/83/21 22/84/22 23/85/23 24/86/24 25/87/25 26/88/26 27/89/27 28/90/28
f 40/91/40 39/92/39 38/93/38 37/94/37 36/95/36 35/96/35 34/97/34 33/98/33 32/99/32 31/100/31 30/101/30 29/102/29
f 41/103/41 42/104/42 43/105/43 44/106/44
f 45/107/45 48/108/48 47/109/47 46/110/46
f 41/109/41 45/111/45 46/112/46 42/113/42
f 42/114/42 46/115/46 47/116/47 43/117/43
f 43/118/43 47/119/47 48/113/48 44/112/44
f 44/120/44 48/121/48 45/122/45 41/123/41
f 49/124/49 50/125/50 51/126/51 52/127/52
f 53/128/53 56/129/56 55/130/55 54/131/54
f 49/132/49 53/133/53 54/134/54 50/135/50
f 50/136/50 54/137/54 55/138/55 51/139/51
f 51/30/51 55/140/55 56/141/56 52/142/52
f 52/143/52 56/144/56 53/145/53 49/146/49
